<svg width="609" height="134" xmlns="http://www.w3.org/2000/svg">

 <g>
  <title>background</title>
  <rect fill="none" id="canvas_background" height="402" width="582" y="-1" x="-1"/>
 </g>
 <g>
  <title>Layer 1</title>
  <path id="svg_1" fill="#FF0078" d="m0.02002,60.55l0,71.53l22.00998,0l0,-71.53c0,-21.27 17.24,-38.52 38.52,-38.52l49.52,0l0,27.51c0,21.27 -17.24,38.52 -38.52,38.52l-38.52,0l0,22.01l38.52,0c33.43,0 60.53,-27.1 60.53,-60.53l0,-44.00997c0,-3.04 -2.46,-5.5 -5.5,-5.5l-66.03,0c-33.43,0 -60.52998,27.09997 -60.52998,60.52997l0,-0.01z"/>
  <path id="svg_2" fill="#323E48" d="m262.73,33.14c0,0.99 -0.08,1.98 -0.19,2.97l-35.73,0c1.13,7.13 6.27,11.52 13.47,11.52c5.26,0 9.52,-2.43 11.85,-6.45l9.53,0c-3.5,9.29 -11.54,14.93 -21.37,14.93c-12.87,0 -22.62,-9.93 -22.62,-23.08c0,-13.15 9.72,-23.08005 22.62,-23.08005c12.9,0 22.44,10.38005 22.44,23.19005l0,0zm-22.44,-15.01c-6.81,0 -11.76,4.1 -13.25,10.63l26.62,0c-1.62,-6.69 -6.66,-10.63 -13.37,-10.63z"/>
  <path id="svg_3" fill="#323E48" d="m307.75,11.03l0,44.02l-8.93,0l0,-18.42l-20.37,0l0,18.42l-8.93,0l0,-44.02l8.93,0l0,17.25l20.37,0l0,-17.25l8.93,0z"/>
  <path id="svg_4" fill="#323E48" d="m359.58,33.14c0,0.99 -0.08,1.98 -0.19,2.97l-35.73,0c1.13,7.13 6.27,11.52 13.47,11.52c5.26,0 9.52,-2.43 11.85,-6.45l9.53,0c-3.5,9.29 -11.54,14.93 -21.37,14.93c-12.87,0 -22.62,-9.93 -22.62,-23.08c0,-13.15 9.72,-23.08005 22.62,-23.08005c12.9,0 22.44,10.38005 22.44,23.19005l0,0zm-22.44,-15.01c-6.81,0 -11.76,4.1 -13.25,10.63l26.62,0c-1.62,-6.69 -6.66,-10.63 -13.37,-10.63z"/>
  <path id="svg_5" fill="#323E48" d="m386.99,56.12c-13.11,0 -23.07,-9.98 -23.07,-23.13c0,-13.15 9.93,-23.04005 23.09,-23.04005c10.88,0 19.38,6.66005 21.83,16.76005l-8.97,0c-2.32,-5.06 -7.15,-8.12 -12.88,-8.12c-7.92,0 -13.86,6.26 -13.86,14.42c0,8.16 6.02,14.47 13.86,14.47c5.76,0 10.43,-3.11 12.82,-8.46l9.13,0c-2.42,10.29 -11.09,17.1 -21.95,17.1l0,0z"/>
  <path id="svg_6" fill="#323E48" d="m435.66,56.12c-13.11,0 -23.07,-9.98 -23.07,-23.13c0,-13.15 9.93,-23.04005 23.09,-23.04005c10.88,0 19.38,6.66005 21.83,16.76005l-8.97,0c-2.32,-5.06 -7.14,-8.12 -12.88,-8.12c-7.92,0 -13.86,6.26 -13.86,14.42c0,8.16 6.02,14.47 13.86,14.47c5.76,0 10.43,-3.11 12.82,-8.46l9.13,0c-2.42,10.29 -11.09,17.1 -21.95,17.1z"/>
  <path id="svg_7" fill="#323E48" d="m508.32,11.01l0,44.02l-7.3,0l-0.88,-5.35c-3.99,4.03 -9.55,6.45 -15.96,6.45c-13.11,0 -22.92,-9.91 -22.92,-23.11c0,-13.2 9.81,-23.06004 22.92,-23.06004c6.49,0 12.11,2.45004 16.1,6.55004l1.06,-5.51l6.98,0l0,0.01zm-9.07,22.01c0,-8.3 -6.06,-14.44 -14.36,-14.44c-8.3,0 -14.42,6.2 -14.42,14.44c0,8.24 6.12,14.44 14.42,14.44c8.3,0 14.36,-6.14 14.36,-14.44z"/>
  <path id="svg_8" fill="#323E48" d="m556.21,11.03l0,44.02l-8.93,0l0,-18.42l-20.37,0l0,18.42l-8.93,0l0,-44.02l8.93,0l0,17.25l20.37,0l0,-17.25l8.93,0z"/>
  <path id="svg_9" fill="#323E48" d="m586.06,56.12c-13.11,0 -23.07,-9.98 -23.07,-23.13c0,-13.15 9.93,-23.04005 23.09,-23.04005c10.88,0 19.38,6.66005 21.83,16.76005l-8.97,0c-2.32,-5.06 -7.14,-8.12 -12.88,-8.12c-7.92,0 -13.86,6.26 -13.86,14.42c0,8.16 6.02,14.47 13.86,14.47c5.76,0 10.43,-3.11 12.82,-8.46l9.13,0c-2.42,10.29 -11.09,17.1 -21.95,17.1z"/>
  <path id="svg_10" fill="#323E48" d="m205.89,18.27c0,-5.44 -4.03,-9.44998 -9.81,-9.44998l-10.68,0l0,18.89998l10.68,0c5.78,0 9.81,-4.01 9.81,-9.45zm9.45,0c0,10.43 -8.07,18.24 -18.82,18.24l-11.13,0l0,18.54l-9.29,0l0,-55.02998l20.42,0c10.69,0 18.82,7.76 18.82,18.23998l0,0.01z"/>
  <text font-weight="bold" xml:space="preserve" text-anchor="start" font-family="Euphoria, sans-serif" font-size="75" id="svg_15" y="131.249995" x="172.799991" stroke-width="2" fill="#FF0078">TECH</text>
  <path d="m174.920624,77.555557c0.317459,0 0.634918,0 1.904755,0c2.857147,0 5.400665,0.025818 7.619049,-0.317459c1.90831,-0.295296 4.742203,-0.793114 6.666672,-0.952385c1.89827,-0.157104 2.539673,0 3.174591,0c0.952393,0 1.587311,0 2.857147,0c0.634918,0 1.269836,0 1.587311,0c2.222214,0 2.857132,0 3.809525,0c0.634918,0 1.269836,0 2.222214,0c0.317459,0 1.587296,-0.317459 2.222229,-0.317459c1.269836,0 2.222214,0 2.857132,0c1.587311,0 2.539688,0 3.174606,0c0.952377,0 0.952377,0 1.587311,0c0.634918,0 1.269836,0 1.904755,0c0.317459,0 0.952377,0 1.269836,0c0.317459,0 0.952393,0 1.269852,0c0,0 0,0.317459 0,0.317459c-0.317459,0 -0.727921,-0.22448 -0.952393,0c-0.224472,0.22448 -0.317459,0.317459 -0.317459,0.317459c0,0.317459 -0.092987,0.092979 -0.317459,0.317459c-0.224487,0.22448 -0.317459,0.317467 -0.634918,0.317467l0,0.317459l-0.317459,0l0,-0.317459" id="svg_19" stroke-width="0" fill="none"/>
 </g>
</svg>